<svg id="Layer_1" data-name="Layer 1" xmlns="http://www.w3.org/2000/svg" viewBox="0 0 500 500"><defs><style>.cls-1{fill:#fff;}</style></defs><title>Artboard 3</title><path class="cls-1" d="M173.89,455.75c-38.7-12.18-73.93-37.67-98.76-71.59a210.07,210.07,0,0,1-40.45-119,210.87,210.87,0,0,1,8.21-63.94,227.73,227.73,0,0,1,11.23-30.44,235.91,235.91,0,0,1,15.72-28.49,215.69,215.69,0,0,1,19.89-25.87A230.09,230.09,0,0,1,113.3,93.84a228.78,228.78,0,0,1,26.75-18.79,245.51,245.51,0,0,1,29.23-14.66,241.14,241.14,0,0,1,31.13-10A231.79,231.79,0,0,1,232.66,45a228.52,228.52,0,0,1,32.68-.36,215.59,215.59,0,0,1,32.32,4.51,237,237,0,0,1,31.19,9.33A217.73,217.73,0,0,1,385.1,90.37a224.63,224.63,0,0,1,23.75,21.86,210,210,0,0,1,54.47,113.25c6,41.6-1.26,84.49-20.36,120.28a248.8,248.8,0,0,0,7.16-29.31,225.13,225.13,0,0,0,3.12-29.62,218.85,218.85,0,0,0-1-29.45,214.46,214.46,0,0,0-5.12-28.74,202.2,202.2,0,0,0-57-97.8,200.16,200.16,0,0,0-45.94-32.38,228.5,228.5,0,0,0-25.84-10.92,205.06,205.06,0,0,0-27-7.11,209.71,209.71,0,0,0-27.67-3.19,195.46,195.46,0,0,0-27.8.86,204.91,204.91,0,0,0-27.38,4.75A214.41,214.41,0,0,0,182,91.52a211.86,211.86,0,0,0-24.92,12.3,209.78,209.78,0,0,0-22.88,15.78,195,195,0,0,0-20.44,18.86,209.63,209.63,0,0,0-17.52,21.66,204.09,204.09,0,0,0-14.31,24A225.75,225.75,0,0,0,71.14,210a208.51,208.51,0,0,0-7,27.24A198.07,198.07,0,0,0,61,265.32,202.1,202.1,0,0,0,88.86,375.1a215.6,215.6,0,0,0,16.49,24.09,218.25,218.25,0,0,0,19.9,21.74,227.26,227.26,0,0,0,23,18.94A245.8,245.8,0,0,0,173.89,455.75Z"/><path class="cls-1" d="M315.86,117.45c30.68,8.83,58.93,28.57,79,55.22A165.9,165.9,0,0,1,428,267a167.72,167.72,0,0,1-6.24,51.12,181.66,181.66,0,0,1-8.86,24.38,189,189,0,0,1-12.5,22.85,170.31,170.31,0,0,1-15.86,20.76,184.65,184.65,0,0,1-18.84,18.16,181.42,181.42,0,0,1-21.42,15.08,196.83,196.83,0,0,1-23.4,11.76,193.08,193.08,0,0,1-24.94,8,185.16,185.16,0,0,1-25.84,4.26,182.9,182.9,0,0,1-26.17.23A171.64,171.64,0,0,1,218,440a189.6,189.6,0,0,1-24.93-7.56,178.86,178.86,0,0,1-23.41-11.19,166.48,166.48,0,0,1-40.28-32.11,165.77,165.77,0,0,1-42.47-90.55c-4.35-33.08,2-67,17.73-94.75a197.49,197.49,0,0,0-5.09,23.14,178.61,178.61,0,0,0-2,23.22,171.47,171.47,0,0,0,1.22,22.94,169.49,169.49,0,0,0,4.35,22.29,157.91,157.91,0,0,0,45,75.1,155.58,155.58,0,0,0,35.55,24.61,178.74,178.74,0,0,0,19.91,8.25,157.74,157.74,0,0,0,20.76,5.35,163,163,0,0,0,21.22,2.36,149.84,149.84,0,0,0,21.29-.73,158.59,158.59,0,0,0,21-3.66A164.8,164.8,0,0,0,308.11,400a161,161,0,0,0,19.1-9.39,163.27,163.27,0,0,0,17.54-12.07,149.63,149.63,0,0,0,15.71-14.39A165.14,165.14,0,0,0,374,347.59,157.18,157.18,0,0,0,385,329.23a179.8,179.8,0,0,0,8.44-19.84,155.44,155.44,0,0,0,8.13-42.48,157.88,157.88,0,0,0-20.48-85.17,170,170,0,0,0-12.52-19,172.93,172.93,0,0,0-15.21-17.23,179.06,179.06,0,0,0-17.69-15.17A200,200,0,0,0,315.86,117.45Z"/></svg>